# xmcd
#
# Track frame offsets:
#	182
#	13945
#	28855
#	43945
#	58042
#	74722
#	86897
#	105130
#	123157
#	137602
#
# Disc length: 2035 seconds
#
# Revision: 3
# Processed by: cddbd v1.5.1PL2 Copyright (c) Steve Scherf et al.
# Submitted via: dBpowerAMP V4.0
#
DISCID=8c07f10a
DTITLE=Various Artist - Greatest Country Hits of the 80's Volume II
DYEAR=1985
DGENRE=Country
TTITLE0=Dwight Yoakam - Guitars, Cadillacs
TTITLE1=Highway 101 - Somewhere Tonight
TTITLE2=Forester Sisters - (I'd Choose) You Again
TTITLE3=Randy Travis - On The Other Hand
TTITLE4=John Anderson - I'm Just An Old Chunk Of Coal
TTITLE5=Hank Williams, Jr. - Born To Boogie
TTITLE6=Dolly Parton, Linda Ronstadt, And Emmylou Harris - Those Memories Of You
TTITLE7=Crystal Gayle And Eddie Rabbit - You And I
TTITLE8=Travis Tritt - Country Club
TTITLE9=Nitty Gritty Dirt Band - Long Hard Road
EXTD=
EXTT0=
EXTT1=
EXTT2=
EXTT3=
EXTT4=
EXTT5=
EXTT6=
EXTT7=
EXTT8=
EXTT9=
PLAYORDER=
